<svg id="visual" viewBox="0 0 900 600" width="900" height="600" xmlns="http://www.w3.org/2000/svg" xmlns:xlink="http://www.w3.org/1999/xlink" version="1.1"><rect x="0" y="0" width="900" height="600" fill="#001220"></rect><path d="M0 415L21.5 420C43 425 86 435 128.8 436C171.7 437 214.3 429 257.2 413.3C300 397.7 343 374.3 385.8 370C428.7 365.7 471.3 380.3 514.2 387C557 393.7 600 392.3 642.8 391C685.7 389.7 728.3 388.3 771.2 382.5C814 376.7 857 366.3 878.5 361.2L900 356L900 601L878.5 601C857 601 814 601 771.2 601C728.3 601 685.7 601 642.8 601C600 601 557 601 514.2 601C471.3 601 428.7 601 385.8 601C343 601 300 601 257.2 601C214.3 601 171.7 601 128.8 601C86 601 43 601 21.5 601L0 601Z" fill="#69f6fa"></path><path d="M0 439L21.5 433.7C43 428.3 86 417.7 128.8 422.8C171.7 428 214.3 449 257.2 452.2C300 455.3 343 440.7 385.8 430C428.7 419.3 471.3 412.7 514.2 414.7C557 416.7 600 427.3 642.8 436.8C685.7 446.3 728.3 454.7 771.2 450.3C814 446 857 429 878.5 420.5L900 412L900 601L878.5 601C857 601 814 601 771.2 601C728.3 601 685.7 601 642.8 601C600 601 557 601 514.2 601C471.3 601 428.7 601 385.8 601C343 601 300 601 257.2 601C214.3 601 171.7 601 128.8 601C86 601 43 601 21.5 601L0 601Z" fill="#0ed4fb"></path><path d="M0 509L21.5 505.5C43 502 86 495 128.8 483.8C171.7 472.7 214.3 457.3 257.2 450C300 442.7 343 443.3 385.8 452C428.7 460.7 471.3 477.3 514.2 487C557 496.7 600 499.3 642.8 493.7C685.7 488 728.3 474 771.2 463.7C814 453.3 857 446.7 878.5 443.3L900 440L900 601L878.5 601C857 601 814 601 771.2 601C728.3 601 685.7 601 642.8 601C600 601 557 601 514.2 601C471.3 601 428.7 601 385.8 601C343 601 300 601 257.2 601C214.3 601 171.7 601 128.8 601C86 601 43 601 21.5 601L0 601Z" fill="#00aef3"></path><path d="M0 523L21.5 519C43 515 86 507 128.8 504C171.7 501 214.3 503 257.2 500.5C300 498 343 491 385.8 488.2C428.7 485.3 471.3 486.7 514.2 488.7C557 490.7 600 493.3 642.8 495.2C685.7 497 728.3 498 771.2 502C814 506 857 513 878.5 516.5L900 520L900 601L878.5 601C857 601 814 601 771.2 601C728.3 601 685.7 601 642.8 601C600 601 557 601 514.2 601C471.3 601 428.7 601 385.8 601C343 601 300 601 257.2 601C214.3 601 171.7 601 128.8 601C86 601 43 601 21.5 601L0 601Z" fill="#0086e2"></path><path d="M0 546L21.5 550.5C43 555 86 564 128.8 565.2C171.7 566.3 214.3 559.7 257.2 555.2C300 550.7 343 548.3 385.8 545.8C428.7 543.3 471.3 540.7 514.2 539.8C557 539 600 540 642.8 542.2C685.7 544.3 728.3 547.7 771.2 550C814 552.3 857 553.7 878.5 554.3L900 555L900 601L878.5 601C857 601 814 601 771.2 601C728.3 601 685.7 601 642.8 601C600 601 557 601 514.2 601C471.3 601 428.7 601 385.8 601C343 601 300 601 257.2 601C214.3 601 171.7 601 128.8 601C86 601 43 601 21.5 601L0 601Z" fill="#245ac7"></path></svg>